<svg xmlns="http://www.w3.org/2000/svg" xmlns:xlink="http://www.w3.org/1999/xlink" version="1.1" x="0px" y="0px" viewBox="0 0 96 96" enable-background="new 0 0 96 96" xml:space="preserve"><g><g><g><path d="M50.725,12.546C65.818,19.598,70.698,40.81,64.056,55.23c-4.45,9.659-13.549,11.594-23.111,13.423     c-7.604,1.455-15.675,1.439-21.995-3.567c-4.472-3.542-7.096-9.188-9.87-14.035c-0.6-1.048-2.397-0.633-2.329,0.631     c0.453,8.38,5.632,15.475,10.274,22.143c3.785,5.437,8.071,9.522,14.331,11.898c16.036,6.085,34.542,2.637,46.819-9.315     c10.688-10.405,14.046-27.966,8.134-41.568c-3.338-7.679-8.485-14.244-15.054-19.424c-2.915-2.299-6.152-4.033-9.581-5.421     c-4.511-1.826-9.37-1.616-14.071-2.559c-1.14-0.229-2.219,1.195-1.216,2.089C47.698,10.693,49.314,11.49,50.725,12.546     c1.291,0.968,2.535-1.204,1.262-2.158c-1.217-0.912-2.701-1.624-3.832-2.632c-0.405,0.696-0.811,1.393-1.216,2.089     c7.384,1.48,13.704,1.67,20.32,5.785c6.345,3.945,11.339,10.012,14.972,16.451c7.317,12.968,5.242,28.986-3.922,40.457     C68.285,85.085,51.584,87.976,36.688,84.632c-7.229-1.623-12.335-5.072-16.714-10.965C15.271,67.34,9.688,59.779,9.25,51.681     c-0.776,0.21-1.553,0.421-2.329,0.631c3.19,5.575,6.168,11.3,11.292,15.358c5.505,4.36,12.794,4.706,19.481,3.994     c10.883-1.157,21.698-3.617,27.645-13.514c9.165-15.253,3.078-40.087-13.353-47.763C50.535,9.71,49.265,11.865,50.725,12.546     L50.725,12.546z"></path></g></g></g></svg>